<svg width="470" height="470" viewBox="0 0 470 470" fill="currentColor" xmlns="http://www.w3.org/2000/svg">
    <path d="M250.381 11.148L278.64 97.5703C293.163 141.998 328.002 176.837 372.43 191.36L458.852 219.619C473.716 224.484 473.716 245.516 458.852 250.381L372.43 278.64C328.002 293.175 293.175 328.002 278.64 372.43L250.381 458.852C245.516 473.716 224.484 473.716 219.619 458.852L191.36 372.43C176.837 328.002 141.998 293.163 97.5703 278.64L11.148 250.381C-3.71598 245.516 -3.71598 224.495 11.148 219.619L97.5585 191.36C141.986 176.837 176.825 141.998 191.348 97.5703L219.619 11.148C224.484 -3.71598 245.516 -3.71598 250.381 11.148Z"/>
</svg>
